<?xml version="1.0" encoding="utf-8"?>
<!-- Generator: Adobe Illustrator 22.1.0, SVG Export Plug-In . SVG Version: 6.00 Build 0)  -->
<svg version="1.1" id="レイヤー_1" xmlns="http://www.w3.org/2000/svg" xmlns:xlink="http://www.w3.org/1999/xlink" x="0px"
	 y="0px" viewBox="0 0 23 23" style="enable-background:new 0 0 23 23;" xml:space="preserve">
<style type="text/css">
	.st0{fill:#FFFFFF;}
</style>
<title>icon/cartGray Copy</title>
<desc>Created with Sketch.</desc>
<g id="Symbols">
	<g id="button_x2F_addCartSmall" transform="translate(-24.000000, -7.000000)">
		<g id="icon_x2F_cart" transform="translate(24.000000, 7.000000)">
			<g id="ショッピングカートのアイコン25">
				<path id="Shape" class="st0" d="M9.9,17.2c-0.9,0-1.6,0.6-1.6,1.4S9,20,9.9,20c0.9,0,1.6-0.6,1.6-1.4S10.8,17.2,9.9,17.2z"/>
				<path id="Shape_1_" class="st0" d="M18.2,17.2c-0.9,0-1.6,0.6-1.6,1.4s0.7,1.4,1.6,1.4s1.6-0.6,1.6-1.4
					C19.8,17.8,19.1,17.2,18.2,17.2z"/>
				<path id="Shape_2_" class="st0" d="M6.8,5.8L5.9,2.9L0,2v0.1V4l4,0.6l3.3,10.9h13L23,6.4L6.8,5.8z M18.4,13.5H9.2L7.4,7.8
					L20,8.2L18.4,13.5z"/>
			</g>
		</g>
	</g>
</g>
</svg>
