<?xml version="1.0" encoding="UTF-8"?>
<svg width="32px" height="32px" viewBox="0 0 32 32" version="1.1" xmlns="http://www.w3.org/2000/svg" xmlns:xlink="http://www.w3.org/1999/xlink">
    <!-- Generator: Sketch 51.3 (57544) - http://www.bohemiancoding.com/sketch -->
    <title>icon/home</title>
    <desc>Created with Sketch.</desc>
    <defs>
        <path d="M20.3239699,28.9092749 L20.3037698,28.9092749 L11.6808301,28.9092749 L11.6581049,28.9092749 L4.5072513,28.9092749 L1.83578127,28.9092749 L1.83578127,31.1758066 L30.1715438,31.1758066 L30.1715438,28.9092749 L27.5000738,28.9092749 L20.3239699,28.9092749 Z M12.0949332,28.0825688 L19.8896667,28.0825688 L19.8896667,16.7473975 L12.0949332,16.7473975 L12.0949332,28.0825688 Z M4.92387943,28.0825688 L11.266727,28.0825688 L11.266727,16.3353008 C11.266727,16.1066374 11.4510534,15.9232041 11.6808301,15.9232041 L20.3037698,15.9232041 C20.5310215,15.9232041 20.7178729,16.1066374 20.7178729,16.3353008 L20.7178729,28.0825688 L27.0834456,28.0825688 L27.0834456,15.6669001 C27.0834456,15.4407495 27.270297,15.2548034 27.5000738,15.2548034 L30.1639687,15.2548034 L30.1639687,13.4305218 L15.9203369,0.957058997 L1.82820621,13.4079067 L1.82820621,15.2548034 L4.5072513,15.2548034 C4.73702803,15.2548034 4.92387943,15.4407495 4.92387943,15.6669001 L4.92387943,28.0825688 Z M1.42167816,28.0825688 L4.0931482,28.0825688 L4.0931482,16.0815095 L1.41410311,16.0815095 C1.1868514,16.0815095 1,15.8955635 1,15.6669001 L1,13.2244734 C1,13.0887831 1.06565049,12.9681694 1.16665125,12.8902731 L15.6451098,0.102712232 C15.804186,-0.0354909214 16.0390128,-0.0329781368 16.1905139,0.102712232 L16.1930389,0.100199447 L30.8532989,12.9355032 C30.9441996,13.0159123 30.9947,13.1315004 30.9947,13.2445757 L30.9947,15.6669001 C30.9947,15.8955635 30.8053235,16.0815095 30.5805969,16.0815095 L27.9116518,16.0815095 L27.9116518,28.0825688 L30.5831219,28.0825688 C30.8128986,28.0825688 30.99975,28.2685149 30.99975,28.4946655 L30.99975,31.5879033 C30.99975,31.8165667 30.8128986,32 30.5831219,32 L1.42167816,32 C1.19190144,32 1.00757506,31.8165667 1.00757506,31.5879033 L1.00757506,28.4946655 C1.00757506,28.2685149 1.19190144,28.0825688 1.42167816,28.0825688 Z" id="path-1"></path>
    </defs>
    <g id="icon/home" stroke="none" stroke-width="1" fill="none" fill-rule="evenodd">
        <mask id="mask-2" fill="white">
            <use xlink:href="#path-1"></use>
        </mask>
        <use id="Mask" fill="#30383B" xlink:href="#path-1"></use>
    </g>
</svg>