<?xml version="1.0" encoding="UTF-8"?>
<svg width="88px" height="16px" viewBox="0 0 88 16" version="1.1" xmlns="http://www.w3.org/2000/svg" xmlns:xlink="http://www.w3.org/1999/xlink">
    <!-- Generator: Sketch 51.3 (57544) - http://www.bohemiancoding.com/sketch -->
    <title>rating</title>
    <desc>Created with Sketch.</desc>
    <defs>
        <path d="M7.78756664,0.162236827 L6.00178857,5.93209216 L0.223613583,5.93209216 C0.100402499,5.93209216 0,6.03704131 0,6.16687773 C0,6.24200911 0.0342128782,6.31267956 0.0925760233,6.35681925 L4.76677075,9.92297724 L2.98121629,15.6925978 C2.94320198,15.816095 3.00760269,15.9482793 3.12499982,15.9884276 C3.19297835,16.0116714 3.26766529,15.9992277 3.32558121,15.9550881 L8.00022316,12.3891648 L12.6748651,15.9550881 C12.7743732,16.0313934 12.9145789,16.0081496 12.9870297,15.9029657 C13.0292926,15.8421562 13.0409205,15.7639726 13.0190064,15.6925978 L11.2332283,9.92297724 L15.9076467,6.35681925 C16.0076019,6.28051394 16.0299633,6.13377296 15.9572889,6.02858903 C15.9152495,5.96801435 15.8479418,5.93209216 15.7763855,5.93209216 L9.99843413,5.93209216 L8.21287967,0.162236827 C8.18224461,0.0629225322 8.09436447,0 7.99999954,0 C7.97719096,0 7.95393514,0.00375656909 7.93112656,0.0115044928 C7.86292442,0.0347482641 7.80948077,0.0908620148 7.78756664,0.162236827 Z" id="path-1"></path>
        <path d="M7.78756664,0.162236827 L6.00178857,5.93209216 L0.223613583,5.93209216 C0.100402499,5.93209216 0,6.03704131 0,6.16687773 C0,6.24200911 0.0342128782,6.31267956 0.0925760233,6.35681925 L4.76677075,9.92297724 L2.98121629,15.6925978 C2.94320198,15.816095 3.00760269,15.9482793 3.12499982,15.9884276 C3.19297835,16.0116714 3.26766529,15.9992277 3.32558121,15.9550881 L8.00022316,12.3891648 L12.6748651,15.9550881 C12.7743732,16.0313934 12.9145789,16.0081496 12.9870297,15.9029657 C13.0292926,15.8421562 13.0409205,15.7639726 13.0190064,15.6925978 L11.2332283,9.92297724 L15.9076467,6.35681925 C16.0076019,6.28051394 16.0299633,6.13377296 15.9572889,6.02858903 C15.9152495,5.96801435 15.8479418,5.93209216 15.7763855,5.93209216 L9.99843413,5.93209216 L8.21287967,0.162236827 C8.18224461,0.0629225322 8.09436447,0 7.99999954,0 C7.97719096,0 7.95393514,0.00375656909 7.93112656,0.0115044928 C7.86292442,0.0347482641 7.80948077,0.0908620148 7.78756664,0.162236827 Z" id="path-3"></path>
        <path d="M7.78756664,0.162236827 L6.00178857,5.93209216 L0.223613583,5.93209216 C0.100402499,5.93209216 0,6.03704131 0,6.16687773 C0,6.24200911 0.0342128782,6.31267956 0.0925760233,6.35681925 L4.76677075,9.92297724 L2.98121629,15.6925978 C2.94320198,15.816095 3.00760269,15.9482793 3.12499982,15.9884276 C3.19297835,16.0116714 3.26766529,15.9992277 3.32558121,15.9550881 L8.00022316,12.3891648 L12.6748651,15.9550881 C12.7743732,16.0313934 12.9145789,16.0081496 12.9870297,15.9029657 C13.0292926,15.8421562 13.0409205,15.7639726 13.0190064,15.6925978 L11.2332283,9.92297724 L15.9076467,6.35681925 C16.0076019,6.28051394 16.0299633,6.13377296 15.9572889,6.02858903 C15.9152495,5.96801435 15.8479418,5.93209216 15.7763855,5.93209216 L9.99843413,5.93209216 L8.21287967,0.162236827 C8.18224461,0.0629225322 8.09436447,0 7.99999954,0 C7.97719096,0 7.95393514,0.00375656909 7.93112656,0.0115044928 C7.86292442,0.0347482641 7.80948077,0.0908620148 7.78756664,0.162236827 Z" id="path-5"></path>
        <path d="M7.78756664,0.162236827 L6.00178857,5.93209216 L0.223613583,5.93209216 C0.100402499,5.93209216 0,6.03704131 0,6.16687773 C0,6.24200911 0.0342128782,6.31267956 0.0925760233,6.35681925 L4.76677075,9.92297724 L2.98121629,15.6925978 C2.94320198,15.816095 3.00760269,15.9482793 3.12499982,15.9884276 C3.19297835,16.0116714 3.26766529,15.9992277 3.32558121,15.9550881 L8.00022316,12.3891648 L12.6748651,15.9550881 C12.7743732,16.0313934 12.9145789,16.0081496 12.9870297,15.9029657 C13.0292926,15.8421562 13.0409205,15.7639726 13.0190064,15.6925978 L11.2332283,9.92297724 L15.9076467,6.35681925 C16.0076019,6.28051394 16.0299633,6.13377296 15.9572889,6.02858903 C15.9152495,5.96801435 15.8479418,5.93209216 15.7763855,5.93209216 L9.99843413,5.93209216 L8.21287967,0.162236827 C8.18224461,0.0629225322 8.09436447,0 7.99999954,0 C7.97719096,0 7.95393514,0.00375656909 7.93112656,0.0115044928 C7.86292442,0.0347482641 7.80948077,0.0908620148 7.78756664,0.162236827 Z" id="path-7"></path>
        <path d="M7.78756664,0.162236827 L6.00178857,5.93209216 L0.223613583,5.93209216 C0.100402499,5.93209216 0,6.03704131 0,6.16687773 C0,6.24200911 0.0342128782,6.31267956 0.0925760233,6.35681925 L4.76677075,9.92297724 L2.98121629,15.6925978 C2.94320198,15.816095 3.00760269,15.9482793 3.12499982,15.9884276 C3.19297835,16.0116714 3.26766529,15.9992277 3.32558121,15.9550881 L8.00022316,12.3891648 L12.6748651,15.9550881 C12.7743732,16.0313934 12.9145789,16.0081496 12.9870297,15.9029657 C13.0292926,15.8421562 13.0409205,15.7639726 13.0190064,15.6925978 L11.2332283,9.92297724 L15.9076467,6.35681925 C16.0076019,6.28051394 16.0299633,6.13377296 15.9572889,6.02858903 C15.9152495,5.96801435 15.8479418,5.93209216 15.7763855,5.93209216 L9.99843413,5.93209216 L8.21287967,0.162236827 C8.18224461,0.0629225322 8.09436447,0 7.99999954,0 C7.97719096,0 7.95393514,0.00375656909 7.93112656,0.0115044928 C7.86292442,0.0347482641 7.80948077,0.0908620148 7.78756664,0.162236827 Z" id="path-9"></path>
    </defs>
    <g id="トップページ" stroke="none" stroke-width="1" fill="none" fill-rule="evenodd">
        <g id="Group-3">
            <g id="rating">
                <g id="-icon/Star/full">
                    <mask id="mask-2" fill="white">
                        <use xlink:href="#path-1"></use>
                    </mask>
                    <use id="Clip-2" fill="#FFDC17" fill-rule="evenodd" xlink:href="#path-1"></use>
                </g>
                <g id="-icon/Star/full" transform="translate(18.000000, 0.000000)">
                    <mask id="mask-4" fill="white">
                        <use xlink:href="#path-3"></use>
                    </mask>
                    <use id="Clip-2" fill="#FFDC17" fill-rule="evenodd" xlink:href="#path-3"></use>
                </g>
                <g id="-icon/Star/full" transform="translate(36.000000, 0.000000)">
                    <mask id="mask-6" fill="white">
                        <use xlink:href="#path-5"></use>
                    </mask>
                    <use id="Clip-2" fill="#FFDC17" fill-rule="evenodd" xlink:href="#path-5"></use>
                </g>
                <g id="-icon/Star/full" transform="translate(54.000000, 0.000000)">
                    <mask id="mask-8" fill="white">
                        <use xlink:href="#path-7"></use>
                    </mask>
                    <use id="Clip-2" fill="#FFDC17" fill-rule="evenodd" xlink:href="#path-7"></use>
                </g>
                <g id="-icon/Star/0%" transform="translate(72.000000, 0.000000)">
                    <mask id="mask-10" fill="white">
                        <use xlink:href="#path-9"></use>
                    </mask>
                    <use id="Clip-2" fill="#D2D2D2" fill-rule="evenodd" xlink:href="#path-9"></use>
                </g>
            </g>
        </g>
    </g>
</svg>