<?xml version="1.0" encoding="UTF-8"?>
<svg width="26px" height="30px" viewBox="0 0 26 30" version="1.1" xmlns="http://www.w3.org/2000/svg" xmlns:xlink="http://www.w3.org/1999/xlink">
    <!-- Generator: Sketch 51.3 (57544) - http://www.bohemiancoding.com/sketch -->
    <title>icon/bell</title>
    <desc>Created with Sketch.</desc>
    <defs></defs>
    <g id="Symbols" stroke="none" stroke-width="1" fill="none" fill-rule="evenodd">
        <g id="header/afterLogin" transform="translate(-1100.000000, -19.000000)" fill="#FFFFFF">
            <g id="icon/bell" transform="translate(1100.000000, 19.000000)">
                <path d="M3.415153,23 C5.20013061,19.9966794 6.01614912,18.4960216 6.01614912,13.7354176 C6.01614912,12.5605539 6.74865403,10.5235887 8.14624924,8.90263768 C8.89585934,8.03452165 10.0962417,7 11.5612515,7 L14.5565398,7 C16.0205434,7 17.221932,8.03452165 17.9715421,8.90263768 C19.3691373,10.5245912 20.100636,12.5605539 20.100636,13.7354176 C20.100636,18.4950191 20.9176607,19.995677 22.7016321,23 L3.415153,23 Z M11.5612515,27.314519 C11.2618532,26.9592436 11.0693141,26.1932447 11,25.6981513 L15,25.6981513 C14.9316486,26.1920987 14.7391095,26.9580975 14.4387485,27.314519 C13.6695548,28.2290666 12.3285199,28.2279206 11.5612515,27.314519 Z M12,5 L14,5 L14,2.57172789 L12,2.57172789 L12,5 Z M26,23.8104202 C25.7075775,23.2870588 25.4279547,22.8020168 25.1680236,22.3522689 L25.0498731,22.1465546 C23.2933692,19.1082353 22.7016321,18.0847059 22.7016321,13.857479 C22.7016321,11.8759664 21.6254781,9.26218487 20.0225698,7.35327731 C18.9897376,6.12302521 17.8358011,5.29512605 16.6208202,4.87764706 C16.6277123,4.82319328 16.6513424,4.77579832 16.6513424,4.72033613 L16.6513424,1.8302521 C16.6513424,1.37445378 16.4790396,0.929747899 16.1708638,0.582857143 C15.8538266,0.222857143 15.3536562,0 14.8653009,0 L11.1346991,0 C10.660128,0 10.2131253,0.187563025 9.86359677,0.542521008 C9.53080623,0.889411765 9.34767297,1.34722689 9.34767297,1.8302521 L9.34767297,4.72033613 C9.34767297,4.77680672 9.37130306,4.82420168 9.37819518,4.87865546 C8.16419889,5.29613445 7.00927784,6.12403361 5.97841481,7.35327731 C4.45614518,9.16615206 3.40807532,11.6147635 3.30647594,13.5537924 C3.30109395,13.656508 3.29836786,13.7577936 3.29836786,13.857479 C3.29836786,18.0877311 2.70663082,19.1102521 0.95012686,22.147563 C0.657704397,22.6527731 0.33968266,23.2053782 0,23.8084034 L1.06630818,25.6981513 L8.50092778,25.6981513 C8.4999432,25.7556303 8.48025145,25.8080672 8.48615897,25.8665546 C8.59938653,26.9092437 9.06115803,27.8934454 9.78679895,28.6376471 C10.6443746,29.5159664 11.7855114,30 12.9995077,30 C14.2125194,30 15.3536562,29.5159664 16.2102473,28.6386555 C16.9378574,27.8944538 17.4006135,26.9102521 17.5128564,25.8655462 C17.518764,25.8070588 17.4990722,25.7556303 17.4980876,25.6981513 L24.9327072,25.6981513 L26,23.8104202 Z" id="Fill-1"></path>
            </g>
        </g>
    </g>
</svg>