<?xml version="1.0" encoding="utf-8"?>
<!-- Generator: Adobe Illustrator 22.1.0, SVG Export Plug-In . SVG Version: 6.00 Build 0)  -->
<svg version="1.1" id="レイヤー_1" xmlns="http://www.w3.org/2000/svg" xmlns:xlink="http://www.w3.org/1999/xlink" x="0px"
	 y="0px" viewBox="0 0 18 16" style="enable-background:new 0 0 18 16;" xml:space="preserve">
<style type="text/css">
	.st0{fill:#FFFFFF;}
</style>
<path id="path-1_2_" class="st0" d="M16.1,3.3C15,0.8,11.7,0.7,9.6,3.7c-0.3,0.4-0.9,0.4-1.2,0C6.3,0.7,3,0.8,1.9,3.3
	c-1.4,3,0.9,7.3,7.1,11.1C15.3,10.6,17.5,6.3,16.1,3.3z M17.5,2.7c1.8,3.8-1,8.9-8.1,13.2c-0.2,0.1-0.5,0.1-0.8,0
	C1.5,11.7-1.3,6.5,0.5,2.7C2.1-0.6,6.2-1,9,2.1C11.8-1,15.9-0.6,17.5,2.7z"/>
</svg>
